<?xml version="1.0" encoding="utf-8"?>
<!-- Generator: Adobe Illustrator 16.0.0, SVG Export Plug-In . SVG Version: 6.00 Build 0)  -->
<!DOCTYPE svg PUBLIC "-//W3C//DTD SVG 1.1//EN" "http://www.w3.org/Graphics/SVG/1.1/DTD/svg11.dtd">
<svg version="1.1" id="Layer_1" xmlns="http://www.w3.org/2000/svg" xmlns:xlink="http://www.w3.org/1999/xlink" x="0px" y="0px"
	 width="1023.5px" height="1023.5px" viewBox="0 0 1023.5 1023.5" enable-background="new 0 0 1023.5 1023.5" xml:space="preserve">
<rect fill="none" width="1024" height="1024"/>
<g>
	<g>
		<polygon fill-rule="evenodd" clip-rule="evenodd" points="287,740 287,551.693 333,518.016 333,740 		"/>
		<polygon fill-rule="evenodd" clip-rule="evenodd" points="697,436.885 697,740 747,740 747,469.031 		"/>
		<polygon fill-rule="evenodd" clip-rule="evenodd" points="509,153.84 352,255.972 352,739.974 509,641.088 		"/>
		<g>
			<polygon fill-rule="evenodd" clip-rule="evenodd" points="525,652.722 384.323,740 682,740 682,432.49 525,345.562 			"/>
			<polygon fill-rule="evenodd" clip-rule="evenodd" points="682,303.713 525,207.272 525,322.706 682,411.453 			"/>
		</g>
	</g>
	<g>
		<g>
			<path d="M299.628,793.369h-1.578v16.701h-10.486v-43.799h15.146c7.999,0,13.988,5.897,13.988,13.666
				c0,5.777-2.367,9.574-6.723,12.084l10.602,18.049H309L299.628,793.369z M298.051,776.375v7.358h4.291
				c2.432,0,3.875-1.574,3.875-3.796c0-1.867-1.443-3.563-3.875-3.563H298.051z"/>
			<path d="M345.6,793.08v6.89h15.564v10.101h-26.047v-43.799h26.047v10.104H345.6v6.598h15.564v10.107H345.6z"/>
			<path d="M409.687,810.07l-3.51-7.707h-14.661l-3.523,7.707h-11.208l18.312-43.855h7.503l18.114,43.855H409.687z M395.397,792.78
				h6.839l-3.388-8.233L395.397,792.78z"/>
			<path d="M447.189,799.97H461v10.101h-24.289v-43.799h10.478V799.97z"/>
			<path d="M516.914,793.08v6.89h15.561v10.101h-26.05v-43.799h26.05v10.104h-15.561v6.598h15.561v10.107H516.914z"/>
			<path d="M557.496,797.923c1.092,1.519,2.184,2.508,4.607,2.508c1.68,0,3.265-1.05,3.265-3.033c0-2.744-2.358-3.736-5.389-4.904
				c-6.179-2.398-11.153-6.599-11.153-13.139c0-8.123,5.336-13.434,13.703-13.434c4.475,0,10.001,2.684,11.754,7.652l-9.522,4.204
				c-0.67-1.344-1.926-1.696-2.721-1.696c-1.515,0-2.727,1.457-2.727,2.921c0,2.103,2.671,3.207,4.608,3.971l0.773,0.353
				c7.641,3.264,10.979,6.658,10.979,14.018c0,7.294-5.815,13.2-13.204,13.2c-5.334,0-8.611-2.225-10.606-4.502
				c-1.147-1.283-2.063-2.801-2.724-4.497L557.496,797.923z"/>
			<path d="M597.784,776.375h-9.456v-10.104h29.627v10.104h-9.695v33.64h-10.476V776.375z"/>
			<path d="M657.39,810.07l-3.521-7.707h-14.654l-3.51,7.707H624.5l18.296-43.855h7.51l18.121,43.855H657.39z M643.083,792.78h6.855
				l-3.4-8.233L643.083,792.78z"/>
			<path d="M684.653,776.375h-9.45v-10.104h29.617v10.104h-9.695v33.64h-10.472V776.375z"/>
			<path d="M731.049,793.08v6.89h15.563v10.101h-26.039v-43.799h26.039v10.104h-15.563v6.598h15.563v10.107H731.049z"/>
		</g>
		<g>
			<path d="M365.521,838.402v2.292h-7.825v-14.803h2.375v12.339c0,0.111,0.063,0.172,0.179,0.172H365.521z"/>
			<path d="M395.605,825.73c4.34,0,7.838,3.373,7.838,7.561c0,4.187-3.498,7.561-7.838,7.561c-4.336,0-7.848-3.374-7.848-7.561
				C387.758,829.104,391.27,825.73,395.605,825.73z M395.605,838.565c3.001,0,5.432-2.368,5.432-5.274
				c0-2.901-2.431-5.25-5.432-5.25c-3.017,0-5.471,2.349-5.471,5.25C390.134,836.197,392.588,838.565,395.605,838.565z"/>
			<path d="M439.97,837.887c-1.072,1.563-3.22,2.965-6.37,2.965c-4.336,0-7.842-3.374-7.842-7.561c0-4.188,3.506-7.561,7.842-7.561
				c2.48,0,4.397,1.126,5.263,1.838l-1.543,1.758c-0.914-0.753-2.367-1.285-3.72-1.285c-2.995,0-5.455,2.349-5.455,5.25
				c0,2.906,2.46,5.274,5.579,5.274c1.755,0,3.156-0.653,3.813-1.465v-1.931c-0.292-0.02-0.62-0.047-0.946-0.047h-3.625v-2.243
				h7.004V837.887z"/>
			<path d="M469.795,825.73c4.348,0,7.846,3.373,7.846,7.561c0,4.187-3.498,7.561-7.846,7.561c-4.34,0-7.844-3.374-7.844-7.561
				C461.952,829.104,465.456,825.73,469.795,825.73z M469.795,838.565c3.009,0,5.457-2.368,5.457-5.274
				c0-2.901-2.448-5.25-5.457-5.25c-3.015,0-5.463,2.349-5.463,5.25C464.332,836.197,466.78,838.565,469.795,838.565z"/>
			<path d="M499.946,825.892h4.881c4.276,0,7.688,3.353,7.688,7.399c0,4.072-3.412,7.403-7.688,7.403h-4.881V825.892z
				 M504.827,838.402c2.994,0,5.309-2.225,5.309-5.111c0-2.879-2.278-5.091-5.263-5.091h-2.405c-0.075,0-0.118,0.021-0.118,0.097
				v9.992c0,0.077,0.043,0.113,0.118,0.113H504.827z"/>
			<path d="M537.282,838.289c0,0.077,0.04,0.113,0.115,0.113h5.482v2.292h-7.979v-14.803h7.979v2.309h-5.482
				c-0.075,0-0.115,0.021-0.115,0.097v3.713c0,0.078,0.04,0.092,0.115,0.092h5.482v2.314h-5.482c-0.075,0-0.115,0.043-0.115,0.105
				V838.289z"/>
			<path d="M567.324,837.337c0.38,0.709,1.025,1.241,2.091,1.241c1.063,0,2.002-0.92,2.002-1.951c0-1.438-1.271-1.994-2.403-2.447
				c-2.128-0.869-3.781-1.778-3.781-4.206c0-2.448,1.861-4.222,4.338-4.222c1.518,0,3.069,0.821,3.706,2.227l-2.148,1.015
				c-0.335-0.656-1.049-0.932-1.64-0.932c-1.005,0-1.854,0.866-1.854,1.801c0,1.159,0.808,1.536,1.788,2.007
				c3.059,1.281,4.345,2.214,4.345,4.758c0,2.348-1.963,4.225-4.321,4.225h-0.078c-2.126,0-3.704-1.319-4.119-2.881
				C565.958,837.771,566.624,837.56,567.324,837.337z"/>
			<path d="M598.461,825.907v14.787h-2.367v-14.787H598.461z"/>
			<path d="M635.111,837.887c-1.075,1.563-3.216,2.965-6.365,2.965c-4.352,0-7.844-3.374-7.844-7.561
				c0-4.188,3.492-7.561,7.844-7.561c2.48,0,4.401,1.126,5.254,1.838l-1.528,1.758c-0.925-0.753-2.373-1.285-3.726-1.285
				c-2.99,0-5.44,2.349-5.44,5.25c0,2.906,2.45,5.274,5.558,5.274c1.757,0,3.147-0.653,3.812-1.465v-1.931
				c-0.28-0.02-0.607-0.047-0.943-0.047h-3.625v-2.243h7.005V837.887z"/>
			<path d="M660.043,825.907c2.146,3.298,4.324,6.593,6.474,9.91c0.19,0.278,0.368,0.549,0.576,0.81v-10.72h2.4v14.787h-2.532
				l-6.431-9.871c-0.182-0.274-0.411-0.535-0.598-0.812c0,0.378-0.021,0.768-0.021,1.193v9.489h-2.376v-14.787H660.043z"/>
		</g>
	</g>
</g>
<g>
	<g>
		<g>
			<g>
				<g>
					<path d="M332.267,980.725h4c3.144,0,5.735,0.83,7.769,2.486c2.053,1.641,3.076,3.999,3.076,7.077
						c0,3.162-1.016,5.583-3.052,7.253c-2.031,1.68-4.657,2.517-7.869,2.517h-3.925V980.725z M334.677,997.852h0.848
						c1.248,0,2.426-0.123,3.542-0.371c1.109-0.248,2.075-0.667,2.907-1.254c0.827-0.592,1.49-1.361,1.986-2.31
						c0.497-0.951,0.741-2.125,0.741-3.525c0-1.387-0.24-2.57-0.728-3.55c-0.488-0.984-1.167-1.749-2.04-2.298
						c-0.871-0.561-1.833-0.973-2.886-1.232c-1.047-0.255-2.222-0.383-3.522-0.383h-0.848V997.852z"/>
					<path d="M350.651,994.441c0.035,1.078,0.376,2.007,1.027,2.796c0.664,0.784,1.53,1.182,2.586,1.182
						c0.839,0,1.528-0.192,2.066-0.577c0.537-0.388,1.048-0.97,1.525-1.757l1.951,1.1c-0.566,1.025-1.34,1.826-2.324,2.413
						c-0.982,0.578-2.061,0.867-3.241,0.867c-1.797,0-3.231-0.595-4.31-1.793c-1.057-1.211-1.584-2.72-1.584-4.515
						c0-1.892,0.501-3.448,1.509-4.661c0.991-1.198,2.437-1.798,4.333-1.798c1.846,0,3.238,0.6,4.18,1.798
						c0.955,1.191,1.437,2.722,1.437,4.587v0.358H350.651z M357.497,992.696c-0.137-0.921-0.488-1.65-1.064-2.189
						c-0.575-0.539-1.321-0.809-2.242-0.809c-0.446,0-0.863,0.069-1.243,0.219c-0.384,0.147-0.729,0.354-1.029,0.628
						c-0.298,0.274-0.545,0.592-0.744,0.963c-0.193,0.371-0.327,0.766-0.396,1.188H357.497z"/>
					<path d="M366.6,990.801c-0.343-0.698-0.855-1.052-1.539-1.052c-0.323,0-0.615,0.115-0.872,0.344
						c-0.256,0.236-0.384,0.513-0.384,0.838c0,0.306,0.096,0.565,0.295,0.781c0.195,0.217,0.462,0.414,0.805,0.603
						c0.223,0.101,0.396,0.183,0.515,0.242c0.119,0.061,0.314,0.152,0.591,0.27c0.13,0.07,0.255,0.123,0.358,0.154
						c0.1,0.034,0.178,0.07,0.23,0.104c0.852,0.393,1.528,0.845,2.027,1.357c0.496,0.515,0.741,1.198,0.741,2.053
						c0,1.128-0.412,2.076-1.231,2.844c-0.807,0.751-1.768,1.127-2.898,1.127c-0.46,0-0.907-0.063-1.334-0.19
						c-0.426-0.125-0.823-0.308-1.191-0.539c-0.367-0.231-0.691-0.513-0.973-0.845c-0.281-0.334-0.501-0.707-0.654-1.114
						l1.974-0.899c0.563,1.024,1.289,1.542,2.178,1.542c0.361,0,0.693-0.104,1-0.298c0.309-0.198,0.535-0.443,0.68-0.744
						c0.145-0.299,0.176-0.623,0.09-0.972c-0.084-0.352-0.353-0.682-0.795-0.989l-2.257-1.203c-0.39-0.207-0.731-0.412-1.022-0.619
						c-0.292-0.199-0.531-0.421-0.719-0.651c-0.186-0.233-0.33-0.489-0.425-0.772c-0.091-0.279-0.138-0.609-0.138-0.984
						c0-0.975,0.34-1.793,1.024-2.46c0.684-0.688,1.521-1.027,2.512-1.027c1.504,0,2.599,0.7,3.283,2.104L366.6,990.801z"/>
					<path d="M374.879,982.57c0,0.431-0.153,0.792-0.462,1.103c-0.308,0.311-0.682,0.459-1.126,0.459s-0.82-0.148-1.128-0.459
						c-0.307-0.311-0.462-0.672-0.462-1.103c0-0.445,0.155-0.823,0.462-1.141c0.308-0.317,0.685-0.472,1.128-0.472
						s0.818,0.154,1.126,0.472C374.727,981.747,374.879,982.125,374.879,982.57z M374.444,1000.058h-2.306v-12.003h2.306V1000.058z"
						/>
					<path d="M389.368,999.824c0,2.26-0.428,4.012-1.284,5.258c-0.853,1.23-2.376,1.849-4.566,1.849
						c-1.689,0-3.077-0.491-4.151-1.461c-1.06-0.977-1.605-2.301-1.639-3.98h2.305c0,1.081,0.327,1.913,0.985,2.503
						c0.661,0.592,1.528,0.888,2.605,0.888c1.316,0,2.215-0.387,2.704-1.157c0.491-0.77,0.73-1.855,0.73-3.258v-2.281h-0.051
						c-0.479,0.722-1.069,1.279-1.783,1.682c-0.709,0.402-1.473,0.6-2.292,0.6c-1.779,0-3.179-0.621-4.205-1.868
						c-1.027-1.251-1.54-2.786-1.54-4.615c0-1.726,0.522-3.193,1.566-4.413c1.04-1.247,2.399-1.87,4.075-1.87
						c1.762,0,3.151,0.804,4.179,2.411h0.051v-2.055h2.31V999.824z M383.29,998.419c1.213,0,2.161-0.421,2.847-1.259
						c0.701-0.854,1.054-1.894,1.054-3.102c0-1.196-0.354-2.214-1.054-3.049c-0.686-0.843-1.634-1.261-2.847-1.261
						c-1.146,0-2.067,0.431-2.77,1.28c-0.681,0.84-1.024,1.846-1.024,3.029c0,1.208,0.343,2.238,1.024,3.075
						C381.223,997.988,382.144,998.419,383.29,998.419z"/>
					<path d="M394.672,989.672h0.055c0.341-0.628,0.837-1.119,1.485-1.458c0.648-0.345,1.36-0.516,2.13-0.516
						c0.784,0,1.452,0.12,1.997,0.356c0.549,0.243,0.989,0.582,1.321,1.027c0.335,0.447,0.573,0.986,0.717,1.629
						c0.145,0.641,0.22,1.372,0.22,2.195v7.151h-2.309v-6.87c0-1.184-0.168-2.043-0.512-2.589c-0.339-0.565-1.052-0.85-2.125-0.85
						c-0.397,0-0.731,0.038-1.003,0.115s-0.51,0.19-0.718,0.335c-0.206,0.146-0.372,0.31-0.514,0.5
						c-0.132,0.186-0.264,0.395-0.383,0.613c-0.053,0.123-0.1,0.274-0.139,0.463c-0.043,0.188-0.083,0.382-0.118,0.574
						c-0.034,0.197-0.06,0.397-0.077,0.593c-0.017,0.197-0.026,0.354-0.026,0.472v1.131v5.513h-2.305v-12.003h2.305V989.672z"/>
					<path d="M413.005,977.804h2.31v12.253h0.053c1.059-1.571,2.452-2.358,4.178-2.358c1.677,0,3.035,0.623,4.076,1.87
						c1.044,1.22,1.562,2.688,1.562,4.413c0,1.829-0.51,3.364-1.535,4.615c-1.025,1.247-2.426,1.868-4.206,1.868
						c-0.821,0-1.584-0.197-2.294-0.6s-1.303-0.96-1.78-1.682h-0.053v1.874h-2.31V977.804z M418.98,998.419
						c1.216,0,2.163-0.421,2.846-1.259c0.703-0.854,1.054-1.894,1.054-3.102c0-1.196-0.351-2.214-1.054-3.049
						c-0.683-0.843-1.63-1.261-2.846-1.261c-1.145,0-2.067,0.431-2.771,1.28c-0.682,0.84-1.024,1.846-1.024,3.029
						c0,1.208,0.343,2.238,1.024,3.075C416.913,997.988,417.836,998.419,418.98,998.419z"/>
					<path d="M425.519,988.055h2.692l4.052,7.618l3.766-7.618h2.592l-9.717,18.876h-2.616l4.718-8.923L425.519,988.055z"/>
					<path d="M450.26,995.211l-2.203,4.847h-2.591l9.231-20.153l9.229,20.153h-2.587l-2.207-4.847H450.26z M454.697,985.184
						l-3.437,7.818h6.87L454.697,985.184z"/>
					<path d="M467.693,1000.058h-2.307v-22.254h2.307V1000.058z"/>
					<path d="M473.387,1000.058h-2.31v-22.254h2.31V1000.058z"/>
					<path d="M482.154,990.877v1.923h-5.611v-1.923H482.154z"/>
					<path d="M491.128,980.135c-0.717-0.327-1.229-0.483-1.537-0.483c-0.5,0-0.854,0.154-1.079,0.472
						c-0.22,0.315-0.378,0.703-0.459,1.165c-0.052,0.342-0.081,0.613-0.092,0.809c-0.005,0.197-0.011,0.467-0.011,0.809v5.149h3.178
						v2.156h-3.178v9.847h-2.307v-9.847h-1.052v-2.156h1.052v-5.843c0-3.147,1.287-4.717,3.869-4.717
						c0.563,0,1.102,0.106,1.615,0.309V980.135z"/>
					<path d="M494.694,990.004h0.074c0.293-0.717,0.72-1.278,1.283-1.689c0.563-0.409,1.229-0.616,1.999-0.616
						c0.632,0,1.268,0.192,1.897,0.59l-1.05,2.104c-0.378-0.323-0.848-0.489-1.41-0.489c-1.181,0-1.965,0.479-2.358,1.438
						c-0.17,0.442-0.287,0.883-0.348,1.318c-0.062,0.438-0.088,0.936-0.088,1.499v5.9h-2.308v-12.003h2.308V990.004z"/>
					<path d="M502.614,994.441c0.036,1.078,0.38,2.007,1.025,2.796c0.668,0.784,1.53,1.182,2.591,1.182
						c0.837,0,1.525-0.192,2.064-0.577c0.537-0.388,1.045-0.97,1.523-1.757l1.951,1.1c-0.567,1.025-1.339,1.826-2.32,2.413
						c-0.984,0.578-2.066,0.867-3.245,0.867c-1.793,0-3.229-0.595-4.307-1.793c-1.058-1.211-1.589-2.72-1.589-4.515
						c0-1.892,0.503-3.448,1.514-4.661c0.987-1.198,2.434-1.798,4.331-1.798c1.846,0,3.239,0.6,4.18,1.798
						c0.956,1.191,1.437,2.722,1.437,4.587v0.358H502.614z M509.465,992.696c-0.143-0.921-0.498-1.65-1.066-2.189
						c-0.574-0.539-1.318-0.809-2.245-0.809c-0.445,0-0.856,0.069-1.245,0.219c-0.382,0.147-0.724,0.354-1.024,0.628
						c-0.299,0.274-0.546,0.592-0.743,0.963c-0.196,0.371-0.331,0.766-0.397,1.188H509.465z"/>
					<path d="M515.122,994.441c0.037,1.078,0.381,2.007,1.031,2.796c0.665,0.784,1.529,1.182,2.584,1.182
						c0.837,0,1.531-0.192,2.066-0.577c0.538-0.388,1.044-0.97,1.525-1.757l1.948,1.1c-0.567,1.025-1.337,1.826-2.316,2.413
						c-0.987,0.578-2.067,0.867-3.246,0.867c-1.797,0-3.231-0.595-4.307-1.793c-1.06-1.211-1.589-2.72-1.589-4.515
						c0-1.892,0.505-3.448,1.514-4.661c0.987-1.198,2.437-1.798,4.33-1.798c1.848,0,3.238,0.6,4.179,1.798
						c0.956,1.191,1.436,2.722,1.436,4.587v0.358H515.122z M521.973,992.696c-0.143-0.921-0.491-1.65-1.064-2.189
						c-0.575-0.539-1.322-0.809-2.245-0.809c-0.445,0-0.856,0.069-1.249,0.219c-0.379,0.147-0.722,0.354-1.019,0.628
						c-0.303,0.274-0.546,0.592-0.743,0.963c-0.198,0.371-0.332,0.766-0.397,1.188H521.973z"/>
					<path d="M531.737,990.877v1.923h-5.612v-1.923H531.737z"/>
					<path d="M543.713,998.184h-0.054c-0.477,0.722-1.07,1.279-1.779,1.682c-0.71,0.402-1.472,0.6-2.293,0.6
						c-1.779,0-3.182-0.621-4.207-1.868c-1.027-1.251-1.538-2.786-1.538-4.615c0-1.726,0.523-3.193,1.563-4.413
						c1.042-1.247,2.402-1.87,4.077-1.87c1.727,0,3.117,0.787,4.177,2.358h0.054v-12.253h2.31v22.254h-2.31V998.184z
						 M539.942,998.419c1.215,0,2.166-0.421,2.849-1.259c0.7-0.854,1.047-1.894,1.047-3.102c0-1.196-0.347-2.214-1.047-3.049
						c-0.683-0.843-1.634-1.261-2.849-1.261c-1.144,0-2.065,0.431-2.766,1.28c-0.686,0.84-1.024,1.846-1.024,3.029
						c0,1.208,0.339,2.238,1.024,3.075C537.877,997.988,538.799,998.419,539.942,998.419z"/>
					<path d="M549.789,989.547c1.244-1.232,2.769-1.849,4.563-1.849c1.794,0,3.309,0.616,4.538,1.849
						c1.247,1.229,1.87,2.74,1.87,4.536c0,1.795-0.623,3.306-1.87,4.538c-1.229,1.232-2.744,1.844-4.538,1.844
						c-1.795,0-3.319-0.611-4.563-1.844c-1.228-1.232-1.846-2.743-1.846-4.538C547.943,992.287,548.562,990.776,549.789,989.547z
						 M550.252,994.083c0,1.114,0.398,2.093,1.203,2.947c0.783,0.821,1.748,1.232,2.897,1.232c1.127,0,2.095-0.411,2.895-1.232
						c0.808-0.854,1.205-1.833,1.205-2.947c0-1.127-0.397-2.108-1.205-2.948c-0.8-0.82-1.768-1.232-2.895-1.232
						c-1.149,0-2.114,0.412-2.897,1.232C550.65,991.975,550.252,992.956,550.252,994.083z"/>
					<path d="M566.966,995.7l3.539-8.308l3.517,8.308l3.483-7.646h2.616l-6.1,12.41l-3.517-8.021l-3.539,8.021l-6.101-12.41h2.612
						L566.966,995.7z"/>
					<path d="M583.581,989.672h0.054c0.338-0.628,0.836-1.119,1.487-1.458c0.649-0.345,1.359-0.516,2.127-0.516
						c0.788,0,1.451,0.12,2.002,0.356c0.547,0.243,0.988,0.582,1.314,1.027c0.334,0.447,0.578,0.986,0.721,1.629
						c0.147,0.641,0.219,1.372,0.219,2.195v7.151h-2.312v-6.87c0-1.184-0.168-2.043-0.513-2.589c-0.334-0.565-1.047-0.85-2.122-0.85
						c-0.394,0-0.732,0.038-1.005,0.115c-0.273,0.077-0.51,0.19-0.713,0.335c-0.209,0.146-0.377,0.31-0.52,0.5
						c-0.132,0.186-0.261,0.395-0.38,0.613c-0.052,0.123-0.099,0.274-0.142,0.463c-0.045,0.188-0.081,0.382-0.114,0.574
						c-0.033,0.197-0.063,0.397-0.076,0.593c-0.022,0.197-0.028,0.354-0.028,0.472v1.131v5.513h-2.306v-12.003h2.306V989.672z"/>
					<path d="M597.094,1000.058h-2.307v-22.254h2.307V1000.058z"/>
					<path d="M601.144,989.547c1.247-1.232,2.769-1.849,4.566-1.849c1.794,0,3.308,0.616,4.537,1.849
						c1.245,1.229,1.87,2.74,1.87,4.536c0,1.795-0.625,3.306-1.87,4.538c-1.229,1.232-2.743,1.844-4.537,1.844
						c-1.798,0-3.319-0.611-4.566-1.844c-1.229-1.232-1.846-2.743-1.846-4.538C599.298,992.287,599.914,990.776,601.144,989.547z
						 M601.608,994.083c0,1.114,0.398,2.093,1.203,2.947c0.785,0.821,1.749,1.232,2.898,1.232c1.125,0,2.095-0.411,2.895-1.232
						c0.802-0.854,1.207-1.833,1.207-2.947c0-1.127-0.405-2.108-1.207-2.948c-0.8-0.82-1.77-1.232-2.895-1.232
						c-1.149,0-2.113,0.412-2.898,1.232C602.007,991.975,601.608,992.956,601.608,994.083z"/>
					<path d="M625.475,1000.058h-2.308v-1.874h-0.048c-1.026,1.522-2.388,2.281-4.078,2.281c-1.763,0-3.162-0.621-4.207-1.868
						c-1.025-1.251-1.535-2.786-1.535-4.615c0-1.726,0.517-3.193,1.563-4.413c1.046-1.247,2.409-1.87,4.104-1.87
						c1.709,0,3.092,0.787,4.153,2.358h0.048v-2.002h2.308V1000.058z M619.401,998.419c1.214,0,2.158-0.421,2.842-1.259
						c0.702-0.854,1.055-1.894,1.055-3.102c0-1.196-0.353-2.214-1.055-3.049c-0.684-0.843-1.628-1.261-2.842-1.261
						c-1.148,0-2.073,0.431-2.768,1.28c-0.689,0.84-1.027,1.846-1.027,3.029c0,1.208,0.338,2.238,1.027,3.075
						C617.328,997.988,618.253,998.419,619.401,998.419z"/>
					<path d="M637.423,998.184h-0.049c-0.479,0.722-1.072,1.279-1.781,1.682s-1.477,0.6-2.295,0.6c-1.778,0-3.181-0.621-4.202-1.868
						c-1.028-1.251-1.543-2.786-1.543-4.615c0-1.726,0.52-3.193,1.567-4.413c1.039-1.247,2.399-1.87,4.073-1.87
						c1.729,0,3.12,0.787,4.181,2.358h0.049v-12.253h2.31v22.254h-2.31V998.184z M633.656,998.419c1.212,0,2.156-0.421,2.841-1.259
						c0.704-0.854,1.056-1.894,1.056-3.102c0-1.196-0.352-2.214-1.056-3.049c-0.685-0.843-1.629-1.261-2.841-1.261
						c-1.148,0-2.07,0.431-2.769,1.28c-0.685,0.84-1.026,1.846-1.026,3.029c0,1.208,0.342,2.238,1.026,3.075
						C631.586,997.988,632.508,998.419,633.656,998.419z"/>
					<path d="M646.348,998.979c0,0.414-0.146,0.763-0.437,1.052c-0.291,0.291-0.643,0.434-1.055,0.434
						c-0.407,0-0.759-0.143-1.046-0.434c-0.291-0.289-0.437-0.638-0.437-1.052c0-0.392,0.146-0.741,0.437-1.039
						c0.287-0.296,0.639-0.448,1.046-0.448c0.412,0,0.764,0.152,1.055,0.448C646.201,998.238,646.348,998.588,646.348,998.979z"/>
					<path d="M658.965,991.465c-0.957-1.073-2.108-1.612-3.438-1.612c-1.113,0-2.063,0.418-2.844,1.256
						c-0.771,0.854-1.158,1.841-1.158,2.95c0,1.249,0.387,2.265,1.158,3.052c0.803,0.801,1.803,1.205,2.996,1.205
						c1.23,0,2.329-0.532,3.286-1.591v2.948c-0.997,0.527-2.095,0.792-3.312,0.792c-1.778,0-3.298-0.6-4.563-1.817
						c-1.25-1.198-1.87-2.695-1.87-4.49c0-1.843,0.62-3.381,1.87-4.61c1.246-1.232,2.814-1.849,4.693-1.849
						c1.233,0,2.288,0.265,3.182,0.794V991.465z"/>
					<path d="M662.22,989.547c1.245-1.232,2.769-1.849,4.563-1.849c1.794,0,3.304,0.616,4.535,1.849
						c1.253,1.229,1.874,2.74,1.874,4.536c0,1.795-0.621,3.306-1.874,4.538c-1.231,1.232-2.741,1.844-4.535,1.844
						c-1.795,0-3.318-0.611-4.563-1.844c-1.236-1.232-1.848-2.743-1.848-4.538C660.372,992.287,660.983,990.776,662.22,989.547z
						 M662.678,994.083c0,1.114,0.403,2.093,1.204,2.947c0.788,0.821,1.755,1.232,2.901,1.232c1.125,0,2.091-0.411,2.897-1.232
						c0.8-0.854,1.203-1.833,1.203-2.947c0-1.127-0.403-2.108-1.203-2.948c-0.807-0.82-1.772-1.232-2.897-1.232
						c-1.146,0-2.113,0.412-2.901,1.232C663.081,991.975,662.678,992.956,662.678,994.083z"/>
					<path d="M677.521,989.568h0.051c0.345-0.547,0.804-0.994,1.376-1.348c0.573-0.349,1.179-0.522,1.808-0.522
						c1.486,0,2.643,0.713,3.462,2.132c0.376-0.651,0.892-1.172,1.551-1.554c0.658-0.386,1.371-0.578,2.141-0.578
						c2.651,0,3.974,1.728,3.974,5.177v7.183h-2.308v-6.796c0-0.306-0.011-0.611-0.037-0.912c-0.024-0.296-0.075-0.587-0.141-0.868
						s-0.171-0.542-0.31-0.782c-0.134-0.238-0.325-0.455-0.563-0.643c-0.307-0.204-0.701-0.308-1.179-0.308
						c-0.479,0-0.89,0.104-1.23,0.308c-0.324,0.188-0.578,0.426-0.759,0.703c-0.177,0.286-0.316,0.643-0.421,1.065
						c-0.101,0.431-0.163,0.816-0.195,1.155c-0.023,0.342-0.034,0.736-0.034,1.177v5.9h-2.308v-6.36
						c0-0.411-0.014-0.748-0.026-1.022c-0.019-0.274-0.069-0.613-0.151-1.03c-0.087-0.439-0.198-0.768-0.338-0.972
						c-0.136-0.241-0.346-0.45-0.639-0.64c-0.289-0.19-0.64-0.284-1.053-0.284c-1.179,0-1.942,0.515-2.28,1.537
						c-0.153,0.486-0.259,0.932-0.304,1.36c-0.056,0.428-0.086,0.934-0.086,1.511v5.9h-2.304v-12.003h2.304V989.568z"/>
				</g>
				<g>
					<rect x="278.483" y="991.414" width="32.662" height="1.596"/>
					<rect x="713.009" y="991.414" width="32.656" height="1.596"/>
				</g>
			</g>
		</g>
	</g>
</g>
</svg>
